<svg id="Capa_1" data-name="Capa 1" xmlns="http://www.w3.org/2000/svg" viewBox="0 0 500 500"><defs><style>.cls-1{fill:#fff;}</style></defs><path class="cls-1" d="M0,408.66c55.85,4.93,106-9.24,150.57-43.23-21.86-1-41.61-7.72-59.09-20.73s-29.5-29.91-36.59-51a103.84,103.84,0,0,0,46.29-1.8c-24.49-5.57-44.34-17.43-59.63-36.43s-22.78-40.9-22.85-65.79a115.43,115.43,0,0,0,22.26,9,106.89,106.89,0,0,0,24.38,3.75c-22.59-15.88-37.09-36.57-43.05-62.75s-2.07-51,11.25-74.77c1.91,2.23,3.57,4.21,5.27,6.16Q93.89,134.46,174,159.69a298.72,298.72,0,0,0,69.56,12.74c1.77.12,2.54.09,2.07-2.22-10.67-51.74,18.63-103.1,69.1-118.9,39.39-12.34,74.64-3.52,104.71,25A5.3,5.3,0,0,0,424.88,78a211.28,211.28,0,0,0,58.95-22.42c.78-.43,1.68-1.67,2.55-.83s-.19,1.87-.52,2.74a102.83,102.83,0,0,1-41.1,51.27,8.6,8.6,0,0,0-1.71,1.33,127.3,127.3,0,0,0,19.24-3c6.44-1.4,12.77-3.16,19-5.19s12.37-4.37,18.62-7c.27,1.51-.72,2.21-1.27,3A206,206,0,0,1,451.88,146a4.71,4.71,0,0,0-2.14,4.47c1.68,77.78-23,146.37-73.22,205.51-40.48,47.68-91.94,77.7-153,91.21a299.51,299.51,0,0,1-64.76,7c-56.59,0-109.1-14.57-157.26-44.44C1,409.36.5,409,0,408.66Z"/></svg>