<svg id="Capa_1" data-name="Capa 1" xmlns="http://www.w3.org/2000/svg" viewBox="0 0 500 500"><defs><style>.cls-1{fill:#fff;}</style></defs><path class="cls-1" d="M124.8.08H375.2C381.36,2.41,388,2.21,394.33,4q78.6,21.62,101.24,99.85c1.9,6.61,1.71,13.61,4.35,20V376.18c-1.54.47-1,1.87-1.17,2.86-1.77,12.58-4.64,24.95-10.07,36.4-25.56,53.87-68.26,82.58-127.94,83.3-73.55.88-147.11.22-220.66.2-19.36,0-38.26-3.13-55.78-11.42C30.17,461.9,1.84,418.84,1.23,359c-.74-72.9-.18-145.81-.17-218.71,0-11.72.89-23.39,4-34.72Q26.46,27,104.73,4.45C111.35,2.54,118.37,2.72,124.8.08ZM455.69,250q0-54.31,0-108.62c0-11.4-1.14-22.67-5-33.5-14.19-39.68-48.33-63.53-91.31-63.57q-108.87-.09-217.73,0c-11.08,0-22,1.19-32.55,4.91C69.4,63.27,45.36,97.5,45.3,140.4q-.13,109.11,0,218.21c0,11.08,1.24,22,5,32.53,14.07,39.34,47.87,63.4,90.34,63.52q109.83.33,219.67,0c32.49-.07,58.74-13.12,78-39.42,12.4-16.94,17.43-36.28,17.4-57.12Q455.62,304.08,455.69,250Z"/><path class="cls-1" d="M250.39,378.08c-70.66-.13-128.6-58.15-128.47-128.66S180.08,120.82,250.58,121s128.6,58.16,128.47,128.66C378.92,320.27,320.89,378.21,250.39,378.08Zm84.32-128.62a84.35,84.35,0,0,0-84.15-84.17c-46.31-.1-84,37.46-84.3,84-.3,46.32,38.05,84.68,84.4,84.42C297.19,333.47,334.79,295.78,334.71,249.46Z"/><path class="cls-1" d="M384.46,83.55c17.8,0,32.62,14.87,32.45,32.5a32.48,32.48,0,0,1-65,0C351.84,98.34,366.68,83.53,384.46,83.55Z"/></svg>