<svg id="Capa_1" data-name="Capa 1" xmlns="http://www.w3.org/2000/svg" viewBox="0 0 538 93"><defs><style>.cls-1{fill:#fff;}</style></defs><path class="cls-1" d="M428.14,61.29V48.54q0-20.83,0-41.65c0-4.32,1.22-5.55,5.62-5.67q3.3-.11,6.62,0c4,.14,5.18,1.38,5.18,5.42q0,28.34,0,56.67c0,6.79,0,13.57,0,20.36,0,5.08-2.56,7.66-7.7,7.87-1.89.08-3.8-.14-5.68,0-6.85.69-10.94-2.73-13.92-8.49-9.74-18.78-19.65-37.48-29.53-56.27V35c0,17.12-.08,34.24.06,51.35,0,3.29-1.25,5-4.34,5.27a56,56,0,0,1-8.78,0c-3.19-.26-4.35-2.31-4.33-5.41.08-10.44,0-20.88,0-31.31q0-22.4,0-44.78c0-6.56,2.29-8.8,8.9-8.82,2.74,0,5.47.06,8.2,0,5.14-.14,9,2,11.31,6.5q13.4,25.67,26.7,51.38l1.13,2.2Z"/><path class="cls-1" d="M117,.47c9.57-1,18,.74,25.69,5.83,7.87,5.24,12.18,13,14,21.86,2.88,14,3.07,28-2.56,41.46C148.21,83.76,137.18,91.33,122,92.5c-7.94.61-16,.72-23.74-1.78C86.14,86.84,79,78.35,76,66.44c-3.35-13.06-3.47-26.23.5-39.2C81,12.53,91.21,3.77,106.16.58,109.77-.19,113.69.47,117,.47ZM93.29,46.58c.87,5.53,1.24,11.21,2.8,16.54a20.21,20.21,0,0,0,5.85,9.32c6.77,5.74,15,5.79,22.87,2.81s11.69-9.9,12.54-17.78a108.8,108.8,0,0,0,.06-22.39c-1-10-5.95-16.91-16.45-19.06-9.46-1.94-19,2.21-23.42,10.68C94.3,32.93,93.78,39.64,93.29,46.58Z"/><path class="cls-1" d="M46.4,49.7C52.82,54,55.62,60.43,58.29,66.93c2.38,5.78,4.9,11.5,7.27,17.28,2.27,5.51,1,7.49-5.08,7.73-2.52.1-5,0-7.57,0-3.72,0-6.18-1.5-7.55-5.27-2.68-7.33-5.71-14.55-8.76-21.74C34,58.82,30,54.64,22.51,55.16c-2.49.17-3.5.69-3.45,3.37.14,9.29,0,18.58.1,27.86,0,3.09-1.16,4.93-4.19,5.07a108.78,108.78,0,0,1-11.56-.14C1.07,91.18,0,89.56,0,87.22,0,84.09,0,81,0,77.83V9.58C0,2.71,1.41,1.31,8.29,1.3c8.31,0,16.61-.13,24.91,0C40.32,1.49,47,3.05,53.14,7.08c12.39,8.2,12.56,32.67-2.7,40.42C49.23,48.12,48.05,48.8,46.4,49.7ZM19.12,28c0,3.23-.14,6.48.09,9.7.07.85,1.26,2.26,2,2.3a69.89,69.89,0,0,0,11-.13A11,11,0,0,0,42.29,29.13c.29-5.82-1.58-10.41-7.26-11.64-4.64-1-9.55-.89-14.36-1.06-.49,0-1.44,1.37-1.48,2.15C19,21.7,19.12,24.84,19.12,28Z"/><path class="cls-1" d="M496.41.4c2.6.26,5.2.58,7.81.75,3,.2,4.71,1.86,5.66,4.61q8.7,25.26,17.46,50.5c3.22,9.25,6.43,18.49,9.82,27.68,2,5.47.49,7.92-5.4,8-12.66.24-12.66.24-16.74-11.47a32.36,32.36,0,0,1-1.65-5c-.59-3.46-2.5-4.34-5.9-4.24-8.3.25-16.61.16-24.91,0-2.17,0-3.16.66-3.76,2.73-1.29,4.5-2.91,8.91-4.27,13.39-.75,2.49-2.25,4.1-4.82,4.26a99.5,99.5,0,0,1-10.36.13c-2.94-.12-4.16-2.1-3.47-4.73,1.19-4.53,2.63-9,4.15-13.42q8.4-24.54,16.92-49c2.18-6.3,4.47-12.56,6.49-18.92,1.22-3.87,4.28-4.54,7.59-4.9a50.41,50.41,0,0,1,5.36,0Zm-.32,21.68-.79.06q-5.48,16.62-11,33.21c.76.36,1,.6,1.3.61q9.75.07,19.49.1c2.2,0,1.89-1.25,1.38-2.75-2.22-6.6-4.36-13.22-6.55-19.83C498.69,29.67,497.38,25.88,496.09,22.08Z"/><path class="cls-1" d="M303.43,46.29q0-18.47,0-36.94c0-6.29,1.76-8,8-8q19.86,0,39.72,0c4.22,0,5.34,1.14,5.51,5.38.38,9.57-.1,10.08-9.64,10.08-7,0-14.09.08-21.13,0-2.33,0-3.16.77-3.11,3.07.12,4.59.14,9.19,0,13.77-.08,2.56.82,3.52,3.44,3.47,6.62-.13,13.24-.06,19.86,0,4.37,0,5.58,1.19,5.75,5.57.44,11.19-1.49,9.81-9.33,9.77-5.57,0-11.14.06-16.71,0-2.13,0-3,.71-3,2.89q.13,8.78,0,17.53c0,2.31.88,3.12,3.16,3.09,8.09-.08,16.18,0,24.27,0,5.21,0,6.35.9,6.82,6a17.79,17.79,0,0,1-.6,6.78,4.4,4.4,0,0,1-3.24,2.56c-14.81.17-29.63.16-44.44.08-3.47,0-5.32-2.48-5.33-6.77C303.41,71.75,303.43,59,303.43,46.29Z"/><path class="cls-1" d="M266.54.13a33.92,33.92,0,0,1,19.12,4.15c5.67,3,8.36,12.53,5,18-1.42,2.36-3.31,1.45-5.17.42-3.19-1.77-6.26-4-9.68-5.09-9.49-3.12-19.58-1.27-24.63,8a50.08,50.08,0,0,0-4.72,14.7A43.57,43.57,0,0,0,248.24,62c3.49,10.6,12.35,16,23.9,13.94A45.41,45.41,0,0,0,284.9,71c5.07-2.67,6.57-2.17,7,3.42.69,10.14-.49,12.59-11.07,15.84C266.58,94.62,252.54,94.39,240,85c-7.89-5.9-11.56-14.41-13.41-23.72a67.54,67.54,0,0,1,.6-29.77c4-16,13.44-26.87,29.93-30.82C260.14,0,263.4.3,266.54.13Z"/><path class="cls-1" d="M171.6,45.29q0-19.08,0-38.18c0-4.36.67-5.34,5.09-5.92a35.45,35.45,0,0,1,9,0c4.83.63,5.26,1.36,5.27,6.35q0,27.54,0,55.09c0,3.24.1,6.47,0,9.7-.09,2.33.87,3.11,3.16,3.08,7.25-.09,14.5,0,21.75,0,4,0,4.87.62,5.22,4.57a57.43,57.43,0,0,1-.16,8.08c-.12,2.27-1.41,3.3-3.72,3.29-13.34,0-26.68,0-40,0-3.69,0-5.56-2.38-5.57-6.84C171.58,71.38,171.6,58.34,171.6,45.29Z"/></svg>