<svg id="Capa_1" data-name="Capa 1" xmlns="http://www.w3.org/2000/svg" viewBox="0 0 499.96 408.31"><defs><style>.cls-1{fill:red;}</style></defs><path class="cls-1" d="M0,362.78c55.85,4.93,106-9.24,150.57-43.23-21.86-1-41.61-7.72-59.09-20.73s-29.5-29.91-36.59-51a103.72,103.72,0,0,0,46.29-1.8c-24.49-5.57-44.34-17.43-59.63-36.43S18.77,168.69,18.7,143.8a114.79,114.79,0,0,0,22.26,9,106.43,106.43,0,0,0,24.38,3.75C42.75,140.67,28.25,120,22.29,93.8S20.22,42.8,33.54,19c1.91,2.23,3.57,4.21,5.27,6.16Q93.89,88.58,174,113.81a298.11,298.11,0,0,0,69.56,12.74c1.77.12,2.54.09,2.07-2.22C235,72.59,264.26,21.23,314.73,5.43c39.39-12.34,74.64-3.52,104.71,25a5.27,5.27,0,0,0,5.44,1.69A211.28,211.28,0,0,0,483.83,9.7c.78-.43,1.68-1.67,2.55-.83s-.19,1.87-.52,2.74a102.76,102.76,0,0,1-41.1,51.27,8.82,8.82,0,0,0-1.71,1.33,126.42,126.42,0,0,0,19.24-3,195.14,195.14,0,0,0,19-5.19c6.23-2,12.37-4.37,18.62-7,.27,1.51-.72,2.21-1.27,3a205.92,205.92,0,0,1-46.76,48.1,4.73,4.73,0,0,0-2.14,4.47c1.68,77.78-23,146.37-73.22,205.51-40.48,47.68-91.94,77.7-153,91.21a299.42,299.42,0,0,1-64.76,7c-56.59,0-109.1-14.57-157.26-44.44C1,363.48.5,363.12,0,362.78Z"/></svg>