<svg id="Capa_1" data-name="Capa 1" xmlns="http://www.w3.org/2000/svg" viewBox="0 0 500 500"><defs><style>.cls-1{fill:#fff;}</style></defs><path class="cls-1" d="M265.35,500C204,498.9,143.81,474.05,94.66,423.78,58.69,387,35.93,342.87,27.91,292,15.1,210.81,36.77,139.35,92.55,78.94c36.33-39.35,81.34-64.59,134.07-74.25,79.24-14.51,150,4.68,211.69,56.69a224.32,224.32,0,0,1,24.58,24.55c3.42,3.92,3.3,7.76-.39,11.46L447.85,112c-3.92,3.89-8.32,3.8-11.91-.37a212.6,212.6,0,0,0-66.88-52.22,209.22,209.22,0,0,0-100.7-22.18,212.63,212.63,0,0,0-206.83,208C59.05,343,125.43,431.4,220.38,455.54c75.77,19.27,143.08,1,200.85-51.8a189.92,189.92,0,0,0,23.91-27c4.37-5.86,8.63-6.13,13.84-.92q6.86,6.85,13.71,13.71c3.65,3.68,3.95,7.26.82,11.32-35.75,46.38-81.87,77.11-138.63,91.68C315,497.64,294.73,499.94,265.35,500Z"/><path class="cls-1" d="M287.18,249.78V71.54c0-5.3,1.06-6.25,6.22-5.7,41.31,4.4,77.27,20.72,107.51,49.11,31.45,29.53,50.28,65.86,56.65,108.58A184.47,184.47,0,0,1,459.29,242a7.4,7.4,0,0,1-6.85,8,25.9,25.9,0,0,1-2.92.1H327.86c-5.09,0-5.87.77-5.87,5.81V424c0,4.46-.42,5-4.87,6.07a159.61,159.61,0,0,1-24.57,4.06c-4.31.35-5.37-.73-5.37-5.08ZM322,163.45q0,23.38,0,46.75c0,3.74,1.2,5,4.88,5h85.26c4.22,0,5.67-1.86,4.44-5.87q-21.21-69.22-88.07-97c-4.47-1.87-6.51-.41-6.52,4.44Z"/><path class="cls-1" d="M261.42,84.43c0,4.43,0,8.86,0,13.28,0,3.79-1,4.91-4.71,5.34A140.5,140.5,0,0,0,196,124.42c-39,25.12-62.56,60.66-68.42,106.83s7.58,86.44,39.27,120.34c24.46,26.17,54.91,41.05,90.49,45.38,2.82.35,4,1.6,4.06,4.55q.06,14.09,0,28.15c0,3.46-1.45,4.84-5,4.54a156.61,156.61,0,0,1-38.35-7.82c-67.56-23.54-110.58-70-125.13-140.06C80.47,226.22,96,172.1,136.81,126c28.68-32.36,65-51.59,107.66-58.86,3.92-.67,7.89-1,11.84-1.5,3.31-.41,5.05,1,5.1,4.41C261.47,74.87,261.42,79.65,261.42,84.43Z"/></svg>