<svg id="Capa_1" data-name="Capa 1" xmlns="http://www.w3.org/2000/svg" viewBox="0 0 500 500"><defs><style>.cls-1{fill:#fff;}</style></defs><path class="cls-1" d="M40.37,243.8c.46-17.41-3.21-34.15-7.88-50.79a462.28,462.28,0,0,1-13.26-65.95c-1.61-12.54-2.61-25.13-3.09-37.76C15.9,83,21.2,79.29,26,79.19,34.32,79,42.68,78.72,51,78.13c37.11-2.61,73.17-10,107.75-24A304.32,304.32,0,0,0,243.6,2.6c4.06-3.49,8.72-3.45,12.77,0A301.61,301.61,0,0,0,324.8,47a326.89,326.89,0,0,0,80.78,25.71,395.27,395.27,0,0,0,60.22,6.24c2.56.07,5.12.23,7.68.23a10.18,10.18,0,0,1,10.38,10.72,467.8,467.8,0,0,1-4.6,47.72c-3.5,23.32-9.13,46.16-15.32,68.88a127.45,127.45,0,0,0-4.35,34.05c.13,42.78-11.23,82.19-34.88,117.88a206.86,206.86,0,0,1-78.89,70.73c-12.38,6.38-23.24,14.69-33.37,24.2a457.65,457.65,0,0,1-56,44.58,11.22,11.22,0,0,1-13.05,0,490,490,0,0,1-59.76-48c-9.55-9-20.44-16-32-22a201.5,201.5,0,0,1-46.29-33.47A208.09,208.09,0,0,1,46.64,293.62a197.67,197.67,0,0,1-6.14-47.26C40.5,245.5,40.42,244.65,40.37,243.8ZM250.2,42.15C139.52,42.11,51.29,131,49.28,239c-2.08,111.66,86.94,203,197.48,204.63,112.37,1.71,204-88.51,203.94-200.73S359.78,42.23,250.2,42.15Z"/><path class="cls-1" d="M243.83,415.41c-42.31-.76-83.87-17.9-117.78-52.59C101.22,337.42,85.52,307,80,271.89c-8.83-56,6.12-105.35,44.61-147,25.07-27.16,56.13-44.57,92.52-51.24,54.68-10,103.51,3.23,146.07,39.12a155.11,155.11,0,0,1,17,16.94q3.54,4.06-.27,7.91L369.77,147.7c-2.7,2.69-5.74,2.62-8.22-.26a146.89,146.89,0,0,0-46.15-36,144.44,144.44,0,0,0-69.49-15.3A146.74,146.74,0,0,0,103.18,239.62c-1.71,67.46,44.1,128.46,109.62,145.12,52.29,13.29,98.73.67,138.6-35.75a130.45,130.45,0,0,0,16.5-18.63c3-4,6-4.22,9.55-.63l9.46,9.46c2.52,2.54,2.72,5,.56,7.81-24.66,32-56.49,53.21-95.66,63.26C278.09,413.78,264.11,415.37,243.83,415.41Z"/><path class="cls-1" d="M258.9,242.75v-123c0-3.66.72-4.31,4.29-3.93,28.5,3,53.32,14.3,74.19,33.89,21.7,20.37,34.69,45.44,39.09,74.92a126.92,126.92,0,0,1,1.19,12.75,5.11,5.11,0,0,1-4.73,5.5,16.81,16.81,0,0,1-2,.06H287c-3.51,0-4.05.53-4.05,4V363c0,3.08-.29,3.45-3.36,4.19a110.7,110.7,0,0,1-17,2.8c-3,.24-3.7-.5-3.7-3.5Zm24-59.57v32.26c0,2.58.83,3.42,3.37,3.42h58.84c2.91,0,3.91-1.28,3.06-4.05q-14.64-47.77-60.78-67c-3.08-1.28-4.49-.28-4.49,3.07Z"/><path class="cls-1" d="M241.12,128.65c0,3,0,6.11,0,9.16,0,2.61-.68,3.39-3.25,3.69A97,97,0,0,0,196,156.24C169,173.57,152.81,198.1,148.77,230s5.23,59.65,27.09,83c16.89,18.06,37.9,28.33,62.45,31.32,1.95.24,2.79,1.1,2.8,3.14q0,9.71,0,19.43c0,2.38-1,3.33-3.42,3.13a108.39,108.39,0,0,1-26.46-5.4C164.6,348.37,134.92,316.3,124.88,268c-8.63-41.48,2.07-78.83,30.25-110.61,19.79-22.33,44.87-35.6,74.29-40.62,2.71-.46,5.45-.71,8.17-1,2.29-.27,3.49.73,3.52,3C241.15,122.05,241.12,125.35,241.12,128.65Z"/></svg>