<svg id="Capa_1" data-name="Capa 1" xmlns="http://www.w3.org/2000/svg" viewBox="0 0 499.07 499.12"><defs><style>.cls-1{fill:red;}</style></defs><path class="cls-1" d="M124,0h250.4c6.16,2.33,12.8,2.13,19.13,3.92q78.6,21.61,101.24,99.85c1.9,6.61,1.71,13.61,4.35,20V376.1c-1.54.47-1,1.87-1.17,2.86-1.77,12.58-4.64,25-10.07,36.4-25.56,53.87-68.26,82.58-127.94,83.3-73.55.88-147.11.22-220.66.2-19.36,0-38.26-3.13-55.78-11.42C29.32,461.82,1,418.76.38,358.92-.36,286,.2,213.11.21,140.21c0-11.72.89-23.39,4-34.72Q25.62,26.92,103.88,4.37C110.5,2.46,117.52,2.64,124,0ZM454.84,249.92V141.3c0-11.4-1.14-22.67-5-33.5-14.19-39.68-48.33-63.53-91.31-63.57q-108.87-.09-217.73,0c-11.08,0-22,1.19-32.55,4.91-39.7,14-63.74,48.28-63.8,91.18q-.12,109.11,0,218.21c0,11.08,1.24,22,5,32.53,14.07,39.34,47.87,63.4,90.34,63.52q109.83.33,219.67,0c32.49-.07,58.74-13.12,78-39.42,12.4-16.94,17.43-36.28,17.4-57.12Q454.77,304,454.84,249.92Z"/><path class="cls-1" d="M249.54,378c-70.66-.13-128.6-58.15-128.47-128.66s58.16-128.6,128.66-128.42,128.6,58.16,128.47,128.66S320,378.13,249.54,378Zm84.32-128.62a84.35,84.35,0,0,0-84.15-84.17c-46.31-.1-84,37.46-84.3,84-.3,46.32,38.05,84.68,84.4,84.42,46.53-.24,84.13-37.93,84.05-84.25Z"/><path class="cls-1" d="M383.61,83.47c17.8,0,32.62,14.87,32.45,32.5a32.5,32.5,0,0,1-65,0C351,98.26,365.83,83.45,383.61,83.47Z"/></svg>