<svg id="Capa_2" data-name="Capa 2" xmlns="http://www.w3.org/2000/svg" viewBox="0 0 1500 1500"><defs><style>.cls-1{fill:#fff;}</style></defs><rect width="1500" height="1500" rx="150"/><path class="cls-1" d="M891.14,128.72H902c42.62,0,77.16,37.4,77.16,83.55l-13,538.67,13,538.67c0,46.15-34.54,83.55-77.16,83.55H891.14c-42.62,0-77.16-37.4-77.16-83.55L826.93,750,814,212.27C814,166.12,848.52,128.72,891.14,128.72Z"/><path class="cls-1" d="M133,161.32A65.41,65.41,0,0,0,127.15,192c2.13,46.05,10.74,251.91,10.74,577.33,0,359.07-10.48,534.75-11.18,546.08,0,.4,0,.79,0,1.19.35,30.27,27.09,54.7,60,54.7h40.08c8.29,0,15-6.19,15-13.82,16.1-158,10.91-312.68,0-463.5,0-7.64,6.72-13.83,15-13.83h0c29.73,0,40.07,22,40.23,49.35,0,.42,0,.85-.05,1.28-10.46,137.18-9.75,279.75.05,426.7,0,7.63,6.72,13.82,15,13.82h40.08c32.9,0,59.62-24.38,60-54.59a13.38,13.38,0,0,0-.05-1.42c-10-129.53-8.11-250.27,0-361.62,0-.41.05-.81,0-1.22a176.37,176.37,0,0,0-48.33-120.7l-5.31-5.61a15.24,15.24,0,0,1,.85-21.74c26.25-24.13,57.22-76.83,52.8-134.8-12.71-120.34-10.46-257.5-.05-403.86,0-.41.05-.82,0-1.23-.36-76.08-67.39-137.65-141.66-137.65H195.12C163.26,126.84,143,139.81,133,161.32ZM243.2,667.19c9.73-114.52,10.38-226,.12-333.68a12.61,12.61,0,0,1,0-3.07c1-6.75,7.27-11.95,14.87-11.95h0c29.62,0,38.62,21.86,38.83,49a15.19,15.19,0,0,1-.12,1.91c-9.6,79.8-10.45,166.08,0,260.73a15.05,15.05,0,0,1,.1,1.78c-.19,27.19-9.19,49.09-38.83,49.09h0C249.92,681,243.2,674.83,243.2,667.19Z"/><path class="cls-1" d="M614.32,128.72h0c-69,0-124.9,82.94-124.9,159.73l-8.77,480.86,15,461.88c0,65.57,49.66,140.09,118.64,140.09h0c69,0,118.64-71.72,118.64-138.69l15-463.28L739.23,287C739.23,211.66,683.3,128.72,614.32,128.72Zm27,1026.23c0,14.67-12.77,26.56-27,26.56h0c-14.21,0-27-11.89-27-26.56l9.77-245.63c1-32.35,1-280.68,0-313l-9.77-251.24c0-14.67,12.78-26.56,27-26.56h0c14.22,0,27,11.89,27,26.56l-7.26,251.24c-1,32.35-1,280.68,0,313Z"/><path class="cls-1" d="M1359.3,857.46a14,14,0,0,0-14-14h-23.82c-53.3,2.39-7,81.85-7,94s-6.28,14-14,14h-74.79c-3.87,0-6.56,0-7-7s50.26-75.66-12.74-76.57c-63,.91-12.29,69.6-12.74,76.57s-3.14,7-7,7h-74.79c-7.74,0-14-1.89-14-14s46.29-91.59-7-94h-23.82a14,14,0,0,0-14,14s-14,51.68-14,99.59c0,41.4,6.19,72,6.19,72,4.67,19.33,17.88,30.36,30.26,30.36h2.18a210,210,0,0,0,37.12-3.32c60.71-10.87,122-10.59,183.93.22a208.57,208.57,0,0,0,35.89,3.1h2.87c8.78,0,17.22-5.7,23.53-15a49.88,49.88,0,0,0,7.83-20.49,454.22,454.22,0,0,0,5.09-66.92C1373.32,909.14,1359.3,857.46,1359.3,857.46Z"/><path class="cls-1" d="M1371.68,431.88l-60.36-133.49a294.3,294.3,0,0,1-20.42-63.26l-16.24-80.65a30.47,30.47,0,0,0-9.18-16.53,35.89,35.89,0,0,0-24.28-9.23h-70.64a35.92,35.92,0,0,0-24.29,9.23,30.52,30.52,0,0,0-9.17,16.53l-16.24,80.65a294.85,294.85,0,0,1-20.42,63.26l-60.36,133.49c-7,20.27,9.46,41,32.67,41h67.68c8,0,15-5.13,16.74-12.34,3.11-14,8.87-28.06,28.69-42.09,4.45-3,11.75-5.34,20-5.34s15.57,2.3,20,5.34c19.82,14,25.58,28.11,28.68,42.09,1.73,7.21,8.7,12.34,16.75,12.34H1339C1362.22,472.84,1378.73,452.15,1371.68,431.88Zm-162.16-65.57h-7.28c-9.94-.26-19.08-4.61-19.08-16.2l17.18-76.1a5.55,5.55,0,1,1,11.08,0l17.18,76.1C1228.6,361.7,1219.45,366.05,1209.52,366.31Z"/><path class="cls-1" d="M1038.43,545.55v17.23c0,23.23,18.19,42.07,40.62,42.07h130.07c6.86,0,9.37,9.35,3.5,13l-131.79,64.21c-20.32,12.69-32.74,35.47-32.74,60v19.7c0,15.49,12.12,28,27.08,28l75.9-8.79c30-3.48,89.26-3.48,119.27,0l75.9,8.79c15,0,27.08-12.55,27.08-28V744.6c0-23.24-18.18-42.07-40.62-42.07h-75.54c-6.65,0-9.31-8.91-3.81-12.8l90.46-64a70.84,70.84,0,0,0,29.51-57.9V545.55c0-15.49-12.12-28-27.08-28l-75.9,8.8a393,393,0,0,1-90.3,0l-114.53-8.8C1050.56,517.5,1038.43,530.06,1038.43,545.55Z"/><path class="cls-1" d="M1312.27,1106.17h-29.12c-68.94-4.05-80.86,98.87-15.13,103.31h30.07c11.08,0,21.42,4.86,27.22,12.92,8.65,12,14.45,30.21-12.31,44.69-44.71,10.64-33.72-8.77-92-9.4l-9-.09c8-.13,18-.31-6.32-.07-24.3-.24-14.28-.06-6.32.07l-9,.09c-58.27.63-47.28,20-92,9.4-26.76-14.48-21-32.67-12.3-44.69,5.79-8.06,16.13-12.92,27.21-12.92h30.07c50.76-1.27,45.89-104.64-15.12-103.31h-29.13c-68.16,0-60.47,89.54-60.47,89.54v77.64c0,64.17,34.27,86.43,55.35,94.05a49.79,49.79,0,0,0,25.49,2.16,495.65,495.65,0,0,1,172.35,0,49.61,49.61,0,0,0,25.53-2.15c21.08-7.63,55.33-29.89,55.33-94v-77.64S1380.43,1106.17,1312.27,1106.17Z"/></svg>